<mxfile host="app.diagrams.net" modified="2022-04-13T17:27:39.462Z" agent="5.0 (Windows NT 10.0; Win64; x64) AppleWebKit/537.36 (KHTML, like Gecko) Chrome/100.0.4896.88 Safari/537.36" etag="Nsr0Xtp8yAd3Qm5bbP_O" version="17.4.3" type="github">
  <diagram id="C5RBs43oDa-KdzZeNtuy" name="Page-1">
    <mxGraphModel dx="765" dy="1591" grid="1" gridSize="10" guides="1" tooltips="1" connect="1" arrows="1" fold="1" page="1" pageScale="1" pageWidth="827" pageHeight="1169" math="0" shadow="0">
      <root>
        <mxCell id="WIyWlLk6GJQsqaUBKTNV-0" />
        <mxCell id="WIyWlLk6GJQsqaUBKTNV-1" parent="WIyWlLk6GJQsqaUBKTNV-0" />
        <mxCell id="nO5fQLpkEOCQdbphFY2Z-24" value="" style="rounded=0;whiteSpace=wrap;html=1;" parent="WIyWlLk6GJQsqaUBKTNV-1" vertex="1">
          <mxGeometry x="117" y="-80" width="710" height="1040" as="geometry" />
        </mxCell>
        <mxCell id="nO5fQLpkEOCQdbphFY2Z-0" value="User" style="shape=umlActor;verticalLabelPosition=bottom;verticalAlign=top;html=1;outlineConnect=0;" parent="WIyWlLk6GJQsqaUBKTNV-1" vertex="1">
          <mxGeometry x="10" y="280" width="30" height="50" as="geometry" />
        </mxCell>
        <mxCell id="nO5fQLpkEOCQdbphFY2Z-1" value="&lt;br&gt;Update Visitor" style="ellipse;whiteSpace=wrap;html=1;verticalAlign=top;" parent="WIyWlLk6GJQsqaUBKTNV-1" vertex="1">
          <mxGeometry x="140" y="480" width="120" height="60" as="geometry" />
        </mxCell>
        <mxCell id="nO5fQLpkEOCQdbphFY2Z-4" value="&lt;br&gt;Register&amp;nbsp;" style="ellipse;whiteSpace=wrap;html=1;verticalAlign=top;" parent="WIyWlLk6GJQsqaUBKTNV-1" vertex="1">
          <mxGeometry x="140" y="-20" width="120" height="60" as="geometry" />
        </mxCell>
        <mxCell id="nO5fQLpkEOCQdbphFY2Z-9" value="&lt;br&gt;Create&amp;nbsp;visitor" style="ellipse;whiteSpace=wrap;html=1;verticalAlign=top;" parent="WIyWlLk6GJQsqaUBKTNV-1" vertex="1">
          <mxGeometry x="130" y="350" width="120" height="60" as="geometry" />
        </mxCell>
        <mxCell id="nO5fQLpkEOCQdbphFY2Z-12" value="&lt;br&gt;Delete visitor" style="ellipse;whiteSpace=wrap;html=1;verticalAlign=top;" parent="WIyWlLk6GJQsqaUBKTNV-1" vertex="1">
          <mxGeometry x="140" y="600" width="120" height="60" as="geometry" />
        </mxCell>
        <mxCell id="nO5fQLpkEOCQdbphFY2Z-17" value="&lt;br&gt;Log in / Log out" style="ellipse;whiteSpace=wrap;html=1;verticalAlign=top;" parent="WIyWlLk6GJQsqaUBKTNV-1" vertex="1">
          <mxGeometry x="320" y="90" width="120" height="60" as="geometry" />
        </mxCell>
        <mxCell id="nO5fQLpkEOCQdbphFY2Z-18" value="&lt;br&gt;View Visitor" style="ellipse;whiteSpace=wrap;html=1;verticalAlign=top;" parent="WIyWlLk6GJQsqaUBKTNV-1" vertex="1">
          <mxGeometry x="140" y="710" width="120" height="60" as="geometry" />
        </mxCell>
        <mxCell id="nO5fQLpkEOCQdbphFY2Z-19" value="&lt;br&gt;View All Visitors" style="ellipse;whiteSpace=wrap;html=1;verticalAlign=top;" parent="WIyWlLk6GJQsqaUBKTNV-1" vertex="1">
          <mxGeometry x="670" y="440" width="120" height="60" as="geometry" />
        </mxCell>
        <mxCell id="nO5fQLpkEOCQdbphFY2Z-20" value="&lt;br&gt;Manage User" style="ellipse;whiteSpace=wrap;html=1;verticalAlign=top;" parent="WIyWlLk6GJQsqaUBKTNV-1" vertex="1">
          <mxGeometry x="690" y="260" width="120" height="60" as="geometry" />
        </mxCell>
        <mxCell id="nO5fQLpkEOCQdbphFY2Z-21" value="&lt;br&gt;Stored&amp;nbsp;&lt;br&gt;File&amp;nbsp;" style="ellipse;whiteSpace=wrap;html=1;verticalAlign=top;" parent="WIyWlLk6GJQsqaUBKTNV-1" vertex="1">
          <mxGeometry x="510" y="480" width="120" height="65" as="geometry" />
        </mxCell>
        <mxCell id="nO5fQLpkEOCQdbphFY2Z-81" value="" style="edgeStyle=orthogonalEdgeStyle;rounded=0;orthogonalLoop=1;jettySize=auto;html=1;startArrow=open;startFill=0;endArrow=none;endFill=0;" parent="WIyWlLk6GJQsqaUBKTNV-1" source="nO5fQLpkEOCQdbphFY2Z-80" target="nO5fQLpkEOCQdbphFY2Z-22" edge="1">
          <mxGeometry relative="1" as="geometry" />
        </mxCell>
        <mxCell id="nO5fQLpkEOCQdbphFY2Z-22" value="Visitor" style="shape=umlActor;verticalLabelPosition=bottom;verticalAlign=top;html=1;outlineConnect=0;" parent="WIyWlLk6GJQsqaUBKTNV-1" vertex="1">
          <mxGeometry x="900" y="560" width="30" height="50" as="geometry" />
        </mxCell>
        <mxCell id="nO5fQLpkEOCQdbphFY2Z-23" value="Security" style="shape=umlActor;verticalLabelPosition=bottom;verticalAlign=top;html=1;outlineConnect=0;" parent="WIyWlLk6GJQsqaUBKTNV-1" vertex="1">
          <mxGeometry x="880" y="210" width="30" height="50" as="geometry" />
        </mxCell>
        <mxCell id="nO5fQLpkEOCQdbphFY2Z-26" value="&lt;br&gt;User Account" style="ellipse;whiteSpace=wrap;html=1;verticalAlign=top;" parent="WIyWlLk6GJQsqaUBKTNV-1" vertex="1">
          <mxGeometry x="430" y="-20" width="120" height="60" as="geometry" />
        </mxCell>
        <mxCell id="nO5fQLpkEOCQdbphFY2Z-27" value="&lt;br&gt;Verification" style="ellipse;whiteSpace=wrap;html=1;verticalAlign=top;" parent="WIyWlLk6GJQsqaUBKTNV-1" vertex="1">
          <mxGeometry x="680" y="-20" width="120" height="60" as="geometry" />
        </mxCell>
        <mxCell id="nO5fQLpkEOCQdbphFY2Z-28" value="&lt;br&gt;Select Date/Time" style="ellipse;whiteSpace=wrap;html=1;verticalAlign=top;" parent="WIyWlLk6GJQsqaUBKTNV-1" vertex="1">
          <mxGeometry x="330" y="310" width="120" height="60" as="geometry" />
        </mxCell>
        <mxCell id="nO5fQLpkEOCQdbphFY2Z-30" value="" style="endArrow=classic;html=1;rounded=0;exitX=1;exitY=0.3333333333333333;exitDx=0;exitDy=0;exitPerimeter=0;entryX=0.063;entryY=0.753;entryDx=0;entryDy=0;entryPerimeter=0;" parent="WIyWlLk6GJQsqaUBKTNV-1" source="nO5fQLpkEOCQdbphFY2Z-0" target="nO5fQLpkEOCQdbphFY2Z-17" edge="1">
          <mxGeometry width="50" height="50" relative="1" as="geometry">
            <mxPoint x="260" y="150" as="sourcePoint" />
            <mxPoint x="310" y="100" as="targetPoint" />
          </mxGeometry>
        </mxCell>
        <mxCell id="nO5fQLpkEOCQdbphFY2Z-31" value="" style="endArrow=classic;html=1;rounded=0;entryX=0;entryY=0.5;entryDx=0;entryDy=0;" parent="WIyWlLk6GJQsqaUBKTNV-1" target="nO5fQLpkEOCQdbphFY2Z-4" edge="1">
          <mxGeometry width="50" height="50" relative="1" as="geometry">
            <mxPoint x="40" y="300" as="sourcePoint" />
            <mxPoint x="310" y="100" as="targetPoint" />
          </mxGeometry>
        </mxCell>
        <mxCell id="nO5fQLpkEOCQdbphFY2Z-32" value="" style="endArrow=classic;html=1;rounded=0;exitX=1;exitY=0.3333333333333333;exitDx=0;exitDy=0;exitPerimeter=0;" parent="WIyWlLk6GJQsqaUBKTNV-1" source="nO5fQLpkEOCQdbphFY2Z-0" target="nO5fQLpkEOCQdbphFY2Z-9" edge="1">
          <mxGeometry width="50" height="50" relative="1" as="geometry">
            <mxPoint x="80" y="210" as="sourcePoint" />
            <mxPoint x="310" y="100" as="targetPoint" />
          </mxGeometry>
        </mxCell>
        <mxCell id="nO5fQLpkEOCQdbphFY2Z-33" value="&lt;br&gt;Enter Type of registration" style="ellipse;whiteSpace=wrap;html=1;verticalAlign=top;" parent="WIyWlLk6GJQsqaUBKTNV-1" vertex="1">
          <mxGeometry x="330" y="195" width="120" height="70" as="geometry" />
        </mxCell>
        <mxCell id="nO5fQLpkEOCQdbphFY2Z-36" value="return" style="html=1;verticalAlign=bottom;endArrow=open;dashed=1;endSize=8;rounded=0;" parent="WIyWlLk6GJQsqaUBKTNV-1" source="nO5fQLpkEOCQdbphFY2Z-17" target="nO5fQLpkEOCQdbphFY2Z-26" edge="1">
          <mxGeometry relative="1" as="geometry">
            <mxPoint x="240" y="90" as="sourcePoint" />
            <mxPoint x="320" y="90" as="targetPoint" />
          </mxGeometry>
        </mxCell>
        <mxCell id="nO5fQLpkEOCQdbphFY2Z-37" value="&amp;lt;&amp;lt;include&amp;gt;&amp;gt;" style="html=1;verticalAlign=bottom;endArrow=open;dashed=1;endSize=8;rounded=0;exitX=1;exitY=0.5;exitDx=0;exitDy=0;entryX=0;entryY=0.5;entryDx=0;entryDy=0;" parent="WIyWlLk6GJQsqaUBKTNV-1" source="nO5fQLpkEOCQdbphFY2Z-9" target="nO5fQLpkEOCQdbphFY2Z-33" edge="1">
          <mxGeometry relative="1" as="geometry">
            <mxPoint x="330" y="160" as="sourcePoint" />
            <mxPoint x="259" y="160" as="targetPoint" />
          </mxGeometry>
        </mxCell>
        <mxCell id="nO5fQLpkEOCQdbphFY2Z-38" value="&amp;lt;&amp;lt;include&amp;gt;&amp;gt;" style="html=1;verticalAlign=bottom;endArrow=open;dashed=1;endSize=8;rounded=0;exitX=1;exitY=0.5;exitDx=0;exitDy=0;" parent="WIyWlLk6GJQsqaUBKTNV-1" source="nO5fQLpkEOCQdbphFY2Z-9" target="nO5fQLpkEOCQdbphFY2Z-41" edge="1">
          <mxGeometry relative="1" as="geometry">
            <mxPoint x="120" y="259.5" as="sourcePoint" />
            <mxPoint x="200" y="259.5" as="targetPoint" />
            <Array as="points" />
          </mxGeometry>
        </mxCell>
        <mxCell id="nO5fQLpkEOCQdbphFY2Z-39" value="&amp;lt;&amp;lt;include&amp;gt;&amp;gt;" style="html=1;verticalAlign=bottom;endArrow=open;dashed=1;endSize=8;rounded=0;entryX=0;entryY=0.5;entryDx=0;entryDy=0;exitX=1;exitY=0.5;exitDx=0;exitDy=0;" parent="WIyWlLk6GJQsqaUBKTNV-1" source="nO5fQLpkEOCQdbphFY2Z-9" target="nO5fQLpkEOCQdbphFY2Z-28" edge="1">
          <mxGeometry relative="1" as="geometry">
            <mxPoint x="250" y="260" as="sourcePoint" />
            <mxPoint x="270" y="230" as="targetPoint" />
          </mxGeometry>
        </mxCell>
        <mxCell id="nO5fQLpkEOCQdbphFY2Z-40" value="Display Error &lt;br&gt;Message" style="ellipse;whiteSpace=wrap;html=1;verticalAlign=top;" parent="WIyWlLk6GJQsqaUBKTNV-1" vertex="1">
          <mxGeometry x="680" y="70" width="120" height="60" as="geometry" />
        </mxCell>
        <mxCell id="nO5fQLpkEOCQdbphFY2Z-41" value="&lt;br&gt;Enter Number&lt;br&gt;&amp;nbsp;Car Plate" style="ellipse;whiteSpace=wrap;html=1;verticalAlign=top;" parent="WIyWlLk6GJQsqaUBKTNV-1" vertex="1">
          <mxGeometry x="330" y="390" width="120" height="65" as="geometry" />
        </mxCell>
        <mxCell id="nO5fQLpkEOCQdbphFY2Z-42" value="" style="endArrow=classic;html=1;rounded=0;entryX=0;entryY=0.5;entryDx=0;entryDy=0;exitX=1;exitY=0.3333333333333333;exitDx=0;exitDy=0;exitPerimeter=0;" parent="WIyWlLk6GJQsqaUBKTNV-1" source="nO5fQLpkEOCQdbphFY2Z-0" target="nO5fQLpkEOCQdbphFY2Z-1" edge="1">
          <mxGeometry width="50" height="50" relative="1" as="geometry">
            <mxPoint x="80" y="210" as="sourcePoint" />
            <mxPoint x="290" y="200" as="targetPoint" />
          </mxGeometry>
        </mxCell>
        <mxCell id="nO5fQLpkEOCQdbphFY2Z-45" value="return" style="html=1;verticalAlign=bottom;endArrow=open;dashed=1;endSize=8;rounded=0;" parent="WIyWlLk6GJQsqaUBKTNV-1" edge="1">
          <mxGeometry relative="1" as="geometry">
            <mxPoint x="100" y="-270" as="sourcePoint" />
            <mxPoint x="20" y="-270" as="targetPoint" />
          </mxGeometry>
        </mxCell>
        <mxCell id="nO5fQLpkEOCQdbphFY2Z-46" value="&amp;lt;&amp;lt;include&amp;gt;&amp;gt;" style="html=1;verticalAlign=bottom;endArrow=none;dashed=1;endSize=8;rounded=0;exitX=0;exitY=0.5;exitDx=0;exitDy=0;entryX=1;entryY=0.5;entryDx=0;entryDy=0;startArrow=open;startFill=0;endFill=0;" parent="WIyWlLk6GJQsqaUBKTNV-1" source="nO5fQLpkEOCQdbphFY2Z-27" target="nO5fQLpkEOCQdbphFY2Z-26" edge="1">
          <mxGeometry relative="1" as="geometry">
            <mxPoint x="670" y="9.5" as="sourcePoint" />
            <mxPoint x="590" y="9.5" as="targetPoint" />
          </mxGeometry>
        </mxCell>
        <mxCell id="nO5fQLpkEOCQdbphFY2Z-47" value="&amp;lt;&amp;lt;include&amp;gt;&amp;gt;" style="html=1;verticalAlign=bottom;endArrow=open;dashed=1;endSize=8;rounded=0;exitX=1;exitY=0.5;exitDx=0;exitDy=0;entryX=0;entryY=0.5;entryDx=0;entryDy=0;" parent="WIyWlLk6GJQsqaUBKTNV-1" source="nO5fQLpkEOCQdbphFY2Z-4" target="nO5fQLpkEOCQdbphFY2Z-26" edge="1">
          <mxGeometry relative="1" as="geometry">
            <mxPoint x="290" y="9.5" as="sourcePoint" />
            <mxPoint x="370" y="9.5" as="targetPoint" />
          </mxGeometry>
        </mxCell>
        <mxCell id="nO5fQLpkEOCQdbphFY2Z-48" value="&amp;lt;&amp;lt;extend&amp;gt;&amp;gt;" style="html=1;verticalAlign=bottom;endArrow=open;dashed=1;endSize=8;rounded=0;exitX=0;exitY=0.5;exitDx=0;exitDy=0;" parent="WIyWlLk6GJQsqaUBKTNV-1" source="nO5fQLpkEOCQdbphFY2Z-40" target="nO5fQLpkEOCQdbphFY2Z-26" edge="1">
          <mxGeometry relative="1" as="geometry">
            <mxPoint x="494" y="90" as="sourcePoint" />
            <mxPoint x="414" y="90" as="targetPoint" />
          </mxGeometry>
        </mxCell>
        <mxCell id="nO5fQLpkEOCQdbphFY2Z-51" value="" style="endArrow=classic;html=1;rounded=0;entryX=0;entryY=0.5;entryDx=0;entryDy=0;" parent="WIyWlLk6GJQsqaUBKTNV-1" target="nO5fQLpkEOCQdbphFY2Z-18" edge="1">
          <mxGeometry width="50" height="50" relative="1" as="geometry">
            <mxPoint x="40" y="300" as="sourcePoint" />
            <mxPoint x="730" y="310" as="targetPoint" />
          </mxGeometry>
        </mxCell>
        <mxCell id="nO5fQLpkEOCQdbphFY2Z-52" value="" style="endArrow=classic;html=1;rounded=0;entryX=0.083;entryY=0.25;entryDx=0;entryDy=0;entryPerimeter=0;exitX=1;exitY=0.3333333333333333;exitDx=0;exitDy=0;exitPerimeter=0;" parent="WIyWlLk6GJQsqaUBKTNV-1" source="nO5fQLpkEOCQdbphFY2Z-0" target="nO5fQLpkEOCQdbphFY2Z-12" edge="1">
          <mxGeometry width="50" height="50" relative="1" as="geometry">
            <mxPoint x="80" y="210" as="sourcePoint" />
            <mxPoint x="140" y="370" as="targetPoint" />
          </mxGeometry>
        </mxCell>
        <mxCell id="nO5fQLpkEOCQdbphFY2Z-56" value="" style="endArrow=classic;html=1;rounded=0;entryX=1;entryY=0.5;entryDx=0;entryDy=0;" parent="WIyWlLk6GJQsqaUBKTNV-1" source="nO5fQLpkEOCQdbphFY2Z-23" target="nO5fQLpkEOCQdbphFY2Z-19" edge="1">
          <mxGeometry width="50" height="50" relative="1" as="geometry">
            <mxPoint x="700" y="210" as="sourcePoint" />
            <mxPoint x="680" y="270" as="targetPoint" />
          </mxGeometry>
        </mxCell>
        <mxCell id="nO5fQLpkEOCQdbphFY2Z-57" value="" style="endArrow=classic;html=1;rounded=0;entryX=1;entryY=0.5;entryDx=0;entryDy=0;" parent="WIyWlLk6GJQsqaUBKTNV-1" source="nO5fQLpkEOCQdbphFY2Z-23" target="nO5fQLpkEOCQdbphFY2Z-17" edge="1">
          <mxGeometry width="50" height="50" relative="1" as="geometry">
            <mxPoint x="680" y="260" as="sourcePoint" />
            <mxPoint x="730" y="210" as="targetPoint" />
          </mxGeometry>
        </mxCell>
        <mxCell id="nO5fQLpkEOCQdbphFY2Z-61" value="&lt;br&gt;Select Number of Visitors" style="ellipse;whiteSpace=wrap;html=1;verticalAlign=top;" parent="WIyWlLk6GJQsqaUBKTNV-1" vertex="1">
          <mxGeometry x="330" y="560" width="120" height="65" as="geometry" />
        </mxCell>
        <mxCell id="nO5fQLpkEOCQdbphFY2Z-62" value="&lt;br&gt;Enter Phone Number" style="ellipse;whiteSpace=wrap;html=1;verticalAlign=top;" parent="WIyWlLk6GJQsqaUBKTNV-1" vertex="1">
          <mxGeometry x="330" y="470" width="120" height="60" as="geometry" />
        </mxCell>
        <mxCell id="nO5fQLpkEOCQdbphFY2Z-63" value="&amp;lt;&amp;lt;include&amp;gt;&amp;gt;" style="html=1;verticalAlign=bottom;endArrow=open;dashed=1;endSize=8;rounded=0;entryX=1;entryY=0.5;entryDx=0;entryDy=0;" parent="WIyWlLk6GJQsqaUBKTNV-1" source="nO5fQLpkEOCQdbphFY2Z-20" target="nO5fQLpkEOCQdbphFY2Z-66" edge="1">
          <mxGeometry relative="1" as="geometry">
            <mxPoint x="770" y="359" as="sourcePoint" />
            <mxPoint x="690" y="359" as="targetPoint" />
          </mxGeometry>
        </mxCell>
        <mxCell id="nO5fQLpkEOCQdbphFY2Z-64" value="&amp;lt;&amp;lt;include&amp;gt;&amp;gt;" style="html=1;verticalAlign=bottom;endArrow=open;dashed=1;endSize=8;rounded=0;entryX=0;entryY=0.5;entryDx=0;entryDy=0;exitX=1.028;exitY=0.633;exitDx=0;exitDy=0;exitPerimeter=0;" parent="WIyWlLk6GJQsqaUBKTNV-1" source="nO5fQLpkEOCQdbphFY2Z-9" target="nO5fQLpkEOCQdbphFY2Z-61" edge="1">
          <mxGeometry relative="1" as="geometry">
            <mxPoint x="290" y="330" as="sourcePoint" />
            <mxPoint x="380" y="510" as="targetPoint" />
          </mxGeometry>
        </mxCell>
        <mxCell id="nO5fQLpkEOCQdbphFY2Z-65" value="&amp;lt;&amp;lt;include&amp;gt;&amp;gt;" style="html=1;verticalAlign=bottom;endArrow=open;dashed=1;endSize=8;rounded=0;exitX=1;exitY=0.5;exitDx=0;exitDy=0;entryX=0;entryY=0.5;entryDx=0;entryDy=0;" parent="WIyWlLk6GJQsqaUBKTNV-1" source="nO5fQLpkEOCQdbphFY2Z-9" target="nO5fQLpkEOCQdbphFY2Z-62" edge="1">
          <mxGeometry relative="1" as="geometry">
            <mxPoint x="300" y="449" as="sourcePoint" />
            <mxPoint x="380" y="449" as="targetPoint" />
          </mxGeometry>
        </mxCell>
        <mxCell id="nO5fQLpkEOCQdbphFY2Z-66" value="&lt;br&gt;Update User" style="ellipse;whiteSpace=wrap;html=1;verticalAlign=top;" parent="WIyWlLk6GJQsqaUBKTNV-1" vertex="1">
          <mxGeometry x="540" y="320" width="120" height="60" as="geometry" />
        </mxCell>
        <mxCell id="nO5fQLpkEOCQdbphFY2Z-67" value="&lt;br&gt;Delete User" style="ellipse;whiteSpace=wrap;html=1;verticalAlign=top;" parent="WIyWlLk6GJQsqaUBKTNV-1" vertex="1">
          <mxGeometry x="530" y="200" width="120" height="60" as="geometry" />
        </mxCell>
        <mxCell id="nO5fQLpkEOCQdbphFY2Z-68" value="" style="endArrow=classic;html=1;rounded=0;entryX=1;entryY=0.5;entryDx=0;entryDy=0;" parent="WIyWlLk6GJQsqaUBKTNV-1" source="nO5fQLpkEOCQdbphFY2Z-23" target="nO5fQLpkEOCQdbphFY2Z-20" edge="1">
          <mxGeometry width="50" height="50" relative="1" as="geometry">
            <mxPoint x="670" y="250" as="sourcePoint" />
            <mxPoint x="720" y="200" as="targetPoint" />
          </mxGeometry>
        </mxCell>
        <mxCell id="nO5fQLpkEOCQdbphFY2Z-69" value="&amp;lt;&amp;lt;include&amp;gt;&amp;gt;" style="html=1;verticalAlign=bottom;endArrow=open;dashed=1;endSize=8;rounded=0;entryX=1;entryY=0.5;entryDx=0;entryDy=0;" parent="WIyWlLk6GJQsqaUBKTNV-1" target="nO5fQLpkEOCQdbphFY2Z-67" edge="1">
          <mxGeometry relative="1" as="geometry">
            <mxPoint x="710" y="270" as="sourcePoint" />
            <mxPoint x="680" y="350" as="targetPoint" />
          </mxGeometry>
        </mxCell>
        <mxCell id="nO5fQLpkEOCQdbphFY2Z-70" value="&amp;lt;&amp;lt;include&amp;gt;&amp;gt;" style="html=1;verticalAlign=bottom;endArrow=open;dashed=1;endSize=8;rounded=0;exitX=1;exitY=0.5;exitDx=0;exitDy=0;entryX=0;entryY=0.5;entryDx=0;entryDy=0;" parent="WIyWlLk6GJQsqaUBKTNV-1" source="nO5fQLpkEOCQdbphFY2Z-41" target="nO5fQLpkEOCQdbphFY2Z-21" edge="1">
          <mxGeometry relative="1" as="geometry">
            <mxPoint x="490" y="422.5" as="sourcePoint" />
            <mxPoint x="570" y="422.5" as="targetPoint" />
          </mxGeometry>
        </mxCell>
        <mxCell id="nO5fQLpkEOCQdbphFY2Z-71" value="&amp;lt;&amp;lt;include&amp;gt;&amp;gt;" style="html=1;verticalAlign=bottom;endArrow=open;dashed=1;endSize=8;rounded=0;exitX=1;exitY=0.5;exitDx=0;exitDy=0;entryX=0.034;entryY=0.361;entryDx=0;entryDy=0;entryPerimeter=0;" parent="WIyWlLk6GJQsqaUBKTNV-1" source="nO5fQLpkEOCQdbphFY2Z-62" target="nO5fQLpkEOCQdbphFY2Z-21" edge="1">
          <mxGeometry relative="1" as="geometry">
            <mxPoint x="520" y="504.40999999999997" as="sourcePoint" />
            <mxPoint x="580" y="540" as="targetPoint" />
          </mxGeometry>
        </mxCell>
        <mxCell id="nO5fQLpkEOCQdbphFY2Z-72" value="&amp;lt;&amp;lt;include&amp;gt;&amp;gt;" style="html=1;verticalAlign=bottom;endArrow=open;dashed=1;endSize=8;rounded=0;entryX=0;entryY=0.5;entryDx=0;entryDy=0;exitX=1;exitY=0.5;exitDx=0;exitDy=0;" parent="WIyWlLk6GJQsqaUBKTNV-1" source="nO5fQLpkEOCQdbphFY2Z-61" target="nO5fQLpkEOCQdbphFY2Z-21" edge="1">
          <mxGeometry relative="1" as="geometry">
            <mxPoint x="540" y="520" as="sourcePoint" />
            <mxPoint x="620" y="520" as="targetPoint" />
            <Array as="points" />
          </mxGeometry>
        </mxCell>
        <mxCell id="nO5fQLpkEOCQdbphFY2Z-74" value="&amp;lt;&amp;lt;include&amp;gt;&amp;gt;" style="html=1;verticalAlign=bottom;endArrow=open;dashed=1;endSize=8;rounded=0;exitX=1;exitY=0.5;exitDx=0;exitDy=0;entryX=0.037;entryY=0.701;entryDx=0;entryDy=0;entryPerimeter=0;" parent="WIyWlLk6GJQsqaUBKTNV-1" source="nO5fQLpkEOCQdbphFY2Z-28" target="nO5fQLpkEOCQdbphFY2Z-21" edge="1">
          <mxGeometry relative="1" as="geometry">
            <mxPoint x="510" y="375" as="sourcePoint" />
            <mxPoint x="610" y="410" as="targetPoint" />
          </mxGeometry>
        </mxCell>
        <mxCell id="nO5fQLpkEOCQdbphFY2Z-75" value="return" style="html=1;verticalAlign=bottom;endArrow=open;dashed=1;endSize=8;rounded=0;" parent="WIyWlLk6GJQsqaUBKTNV-1" edge="1">
          <mxGeometry relative="1" as="geometry">
            <mxPoint x="109.99999999999977" y="-260" as="sourcePoint" />
            <mxPoint x="29.999999999999773" y="-260" as="targetPoint" />
          </mxGeometry>
        </mxCell>
        <mxCell id="nO5fQLpkEOCQdbphFY2Z-76" value="&amp;lt;&amp;lt;include&amp;gt;&amp;gt;" style="html=1;verticalAlign=bottom;endArrow=open;dashed=1;endSize=8;rounded=0;exitX=1;exitY=0.5;exitDx=0;exitDy=0;entryX=0.011;entryY=0.361;entryDx=0;entryDy=0;entryPerimeter=0;" parent="WIyWlLk6GJQsqaUBKTNV-1" source="nO5fQLpkEOCQdbphFY2Z-33" target="nO5fQLpkEOCQdbphFY2Z-21" edge="1">
          <mxGeometry relative="1" as="geometry">
            <mxPoint x="473.9999999999998" y="289.40999999999997" as="sourcePoint" />
            <mxPoint x="553.9999999999998" y="289.40999999999997" as="targetPoint" />
          </mxGeometry>
        </mxCell>
        <mxCell id="nO5fQLpkEOCQdbphFY2Z-80" value="&lt;br&gt;View Access Info" style="ellipse;whiteSpace=wrap;html=1;verticalAlign=top;" parent="WIyWlLk6GJQsqaUBKTNV-1" vertex="1">
          <mxGeometry x="670" y="555" width="120" height="60" as="geometry" />
        </mxCell>
        <mxCell id="nO5fQLpkEOCQdbphFY2Z-84" value="" style="endArrow=classic;html=1;rounded=0;exitX=1;exitY=0.5;exitDx=0;exitDy=0;entryX=0;entryY=0.5;entryDx=0;entryDy=0;" parent="WIyWlLk6GJQsqaUBKTNV-1" source="nO5fQLpkEOCQdbphFY2Z-21" target="nO5fQLpkEOCQdbphFY2Z-19" edge="1">
          <mxGeometry width="50" height="50" relative="1" as="geometry">
            <mxPoint x="620" y="440" as="sourcePoint" />
            <mxPoint x="670" y="390" as="targetPoint" />
          </mxGeometry>
        </mxCell>
        <mxCell id="nO5fQLpkEOCQdbphFY2Z-85" value="" style="endArrow=classic;html=1;rounded=0;exitX=1;exitY=0.5;exitDx=0;exitDy=0;entryX=0;entryY=0.5;entryDx=0;entryDy=0;" parent="WIyWlLk6GJQsqaUBKTNV-1" source="nO5fQLpkEOCQdbphFY2Z-21" target="nO5fQLpkEOCQdbphFY2Z-80" edge="1">
          <mxGeometry width="50" height="50" relative="1" as="geometry">
            <mxPoint x="720" y="440" as="sourcePoint" />
            <mxPoint x="770" y="390" as="targetPoint" />
          </mxGeometry>
        </mxCell>
      </root>
    </mxGraphModel>
  </diagram>
</mxfile>
